<?xml version="1.0" encoding="utf-8"?>
<svg version="1.1" id="_x36_7-fruit-icons-Prune-line-art" x="0px" y="0px" width="275px" height="275px" viewBox="0 0 275 275" xmlns="http://www.w3.org/2000/svg">
  <path opacity="0.7" fill="#6F489D" d="M 234.487 187.853 C 227.782 228.806 182.854 249.528 128.306 240.596 C 73.757 231.666 37.059 187.013 41.771 156.704 C 43.569 145.154 44.525 118.43 55.788 111.489 C 66.041 105.172 80.774 104.859 95.298 101.875 C 112.791 98.28 125.685 88.154 147.095 91.66 C 201.644 100.591 241.193 146.899 234.487 187.853 Z" transform="matrix(0, 1, -1, 0, 305.086676, 28.493705)"/>
  <path opacity="0.7" fill="#6F489D" d="M 202.129 192.823 C 195.422 233.777 162.59 244.059 108.044 235.13 C 53.494 226.197 23.767 170.093 28.482 139.782 C 30.277 128.23 23.864 117.659 35.127 110.719 C 45.379 104.402 60.113 104.088 74.637 101.103 C 92.13 97.509 105.023 87.384 126.434 90.888 C 180.984 99.819 208.835 151.868 202.129 192.823 Z" transform="matrix(0, 1, -1, 0, 279.690457, 48.583349)"/>
  <ellipse opacity="0.5" fill="#D3169D" cx="185.457" cy="125.944" rx="86.507" ry="69.328" transform="matrix(0, 1, -1, 0, 265.089081, -23.146469)"/>
  <ellipse opacity="0.5" fill="#EF8ED9" cx="159.568" cy="97.529" rx="38.519" ry="30.868" transform="matrix(0, 1, -1, 0, 265.089003, -23.146439)"/>
  <ellipse opacity="0.5" fill="#F4CEEC" cx="150.096" cy="108.264" rx="24.019" ry="19.249" transform="matrix(0, 1, -1, 0, 265.089177, -23.146378)"/>
  <g transform="matrix(0, 1.543507, -1.543507, 0, 306.836456, -73.16378)">
    <path d="M206.713,83.534c-0.475-0.454-1.039-1.024-1.691-1.688c-8.811-8.898-35.604-35.979-78.059-17.492&#10;&#9;&#9;c-5.938,2.586-11.251,3.515-15.521,4.261c-3.255,0.568-6.066,1.06-8.422,2.108c-1.009,0.449-1.463,1.632-1.014,2.641&#10;&#9;&#9;c0.449,1.009,1.628,1.461,2.641,1.014c1.903-0.848,4.489-1.3,7.483-1.822c4.479-0.783,10.054-1.757,16.43-4.533&#10;&#9;&#9;c39.932-17.394,64.403,7.331,73.616,16.639c0.686,0.691,1.273,1.286,1.768,1.759c0.287,0.276,28.47,27.905,4.716,54.767&#10;&#9;&#9;c-0.246,0.277-0.408,0.617-0.474,0.982c-2.164,12.479-8.432,21.034-18.623,25.432c-21.586,9.312-54.692-2.398-66.82-10.429&#10;&#9;&#9;c-13.604-9.004-17.639-20.911-20.585-29.604c-1.217-3.59-2.178-6.426-3.602-8.332c-3.859-5.168-3.587-8.702-2.773-14.501&#10;&#9;&#9;c0.153-1.094-0.608-2.104-1.702-2.258c-1.093-0.158-2.106,0.608-2.259,1.703c-0.908,6.47-1.152,11.181,3.529,17.45&#10;&#9;&#9;c1.045,1.397,1.959,4.099,3.019,7.224c2.954,8.721,7.42,21.897,22.165,31.657c9.622,6.369,30.522,14.556,50.157,14.556&#10;&#9;&#9;c7.192,0,14.22-1.102,20.455-3.789c11.355-4.897,18.381-14.271,20.881-27.862C232.492,119.757,217.547,93.937,206.713,83.534z"/>
    <path d="M 119.282 86.104 C 129.657 81.467 140.992 80.562 152.977 83.416 C 153.921 83.638 154.857 82.948 155.054 81.867 C 155.254 80.786 154.643 79.726 153.695 79.5 C 141.028 76.487 129.021 77.455 117.999 82.379 C 108.868 86.46 98.867 89.379 87.63 83.178 C 71.811 74.451 67.703 71.732 65.247 70.107 C 64.561 69.653 63.998 69.281 63.356 68.89 C 60.311 67.044 57.139 66.637 54.423 67.749 C 52.036 68.725 50.212 70.787 49.147 73.714 C 47.401 78.524 49.199 82.902 51.61 84.934 C 53.751 86.74 56.346 86.764 58.223 85.002 C 58.971 84.3 59.079 83.039 58.461 82.187 C 57.844 81.335 56.738 81.211 55.991 81.915 C 55.143 82.711 54.19 82.135 53.699 81.72 C 52.349 80.582 51.366 78.071 52.392 75.245 C 53.076 73.362 54.159 72.107 55.609 71.515 C 57.357 70.803 59.578 71.131 61.705 72.421 C 62.309 72.787 62.838 73.139 63.483 73.566 C 65.981 75.218 70.162 77.986 86.1 86.777 C 91.283 89.637 96.26 90.73 100.983 90.73 C 107.636 90.731 113.783 88.56 119.282 86.104 Z"/>
  </g>
</svg>