<?xml version="1.0" encoding="utf-8"?>
<svg viewBox="0 0 1024 1024" xmlns="http://www.w3.org/2000/svg" xmlns:bx="https://boxy-svg.com">
  <ellipse cx="512" cy="512" rx="512" ry="512" style="fill: rgb(55, 55, 55);" bx:origin="0.5 0.5"/>
  <g transform="matrix(1.982959, 0, 0, 2.048, 0.000027, -30.542343)" style="visibility: hidden;">
    <g>
      <path d="M 305.999 143.45 C 305.999 101.35 271.601 66.95 229.499 66.95 C 187.4 66.95 153 101.35 153 143.45 L 191.2 143.45 C 191.2 122.45 208.4 105.25 229.4 105.25 C 250.4 105.25 267.601 122.45 267.601 143.45 C 267.601 164.45 250.4 181.65 229.4 181.65 L 14.824 181.65 C 14.824 181.65 10.278 194.385 8.549 200.752 C 6.82 207.118 4.177 219.85 4.177 219.85 L 229.499 219.85 C 271.601 220.05 305.999 185.55 305.999 143.45 Z" style="fill: rgb(85, 92, 222);"/>
      <path d="M439.801,143.45c-42.102,0-76.5,34.4-76.5,76.5H401.6c0-21,17.201-38.2,38.201-38.2S478,198.95,478,219.95&#10;&#9;&#9;&#9;s-17.1,38.3-38.199,38.3H0v38.2h439.9c42.1,0,76.5-34.4,76.5-76.5C516.4,177.85,481.9,143.45,439.801,143.45z" style="fill: rgb(255, 255, 255);"/>
      <path d="M 376.439 334.913 L 10.368 335.628 C 10.368 335.628 14.806 348.539 17.254 354.933 C 20.216 362.669 25.698 373.898 25.698 373.898 L 376.439 373.213 C 387.906 373.213 395.485 380.833 395.485 392.363 C 395.485 403.893 387.906 411.514 376.439 411.514 C 364.971 411.514 357.393 403.893 357.393 392.363 L 319.299 392.363 C 319.299 423.044 344.129 449.913 376.538 449.913 C 408.946 449.913 433.776 424.948 433.776 392.363 C 433.776 359.778 408.847 334.913 376.439 334.913 Z" style="fill: rgb(191, 57, 57);"/>
    </g>
  </g>
  <g transform="matrix(2.047999, 0, 0, -2.048, -8.588732, 1053.175781)">
    <path d="M 19.3 103.363 C 2.654 120.007 -3.846 144.269 2.246 167.007 C 15.374 216 76.616 232.41 112.482 196.544 C 125.037 183.988 131.82 167.1 131.781 149.802 L 105.447 149.802 C 105.525 159.764 101.86 169.892 93.845 177.907 C 83.858 187.895 69.301 191.796 55.659 188.139 C 26.263 180.264 16.416 143.517 37.936 121.998 C 45.426 114.508 50.469 110.116 70.946 110.008 C 117.15 109.764 391.063 110.091 391.063 110.091 C 391.063 110.091 393.165 103.309 394.611 97.649 C 396.138 91.673 397.741 83.885 397.741 83.885 C 397.741 83.885 113.65 83.633 65.639 84.024 C 48.902 84.159 32.57 90.092 19.3 103.363 Z" transform="matrix(-1, 0, 0, -1, 406.65966, 299.65609)" style="fill: rgb(190, 59, 59);"/>
    <path d="M 168.958 381.63 C 141.344 381.63 118.958 359.245 118.958 331.63 C 118.958 326.771 119.651 322.072 120.945 317.63 L 148.243 317.63 C 145.538 321.624 143.958 326.443 143.958 331.63 C 143.958 345.437 155.151 356.63 168.958 356.63 C 182.765 356.63 193.958 345.437 193.958 331.63 C 193.958 317.823 182.765 306.63 168.958 306.63 L 7.724 306.424 C 7.724 306.424 6.456 298.839 6.017 295.163 C 5.47 290.584 4.764 281.661 4.764 281.661 L 168.958 281.63 C 196.572 281.63 218.958 304.016 218.958 331.63 C 218.958 359.245 196.572 381.63 168.958 381.63 Z" style="fill: rgb(57, 116, 210);"/>
    <path d="M 438.999 336.512 C 438.999 377.933 405.421 411.512 363.999 411.512 C 322.578 411.512 288.999 377.933 288.999 336.512 C 288.999 329.586 289.938 322.879 291.695 316.512 L 266 316.512 C 264.689 322.974 264 329.663 264 336.512 C 264 391.741 308.771 436.512 364 436.512 C 419.228 436.512 464 391.741 464 336.512 C 464 281.284 419.228 236.512 364 236.512 L 363.999 236.512 L 5.638 236.51 C 5.638 236.51 4.852 244.098 4.609 248.097 C 4.361 252.183 4.198 260.781 4.198 260.781 L 363.999 261.512 C 405.421 261.512 438.999 295.091 438.999 336.512 Z" style="fill: rgb(255, 255, 255);"/>
  </g>
</svg>